<svg width="686" height="94" viewBox="0 0 686 94" fill="none" xmlns="http://www.w3.org/2000/svg">
<path d="M370.57 93.6451L333.978 0.0253906H316.15L279.794 93.6451H297.622L305.755 73.0163C311.763 75.9987 318.342 77.6061 325.065 77.6061C331.788 77.6061 338.661 75.9801 344.783 72.9415L352.745 93.6451H370.573H370.57ZM325.201 63.4415C320.291 63.4415 315.21 62.5097 310.804 60.2108L325.527 22.8703L330.92 36.7331L339.83 59.9812C335.326 62.523 330.103 63.6311 325.204 63.4415H325.201Z" fill="#154B64"/>
<path d="M475.1 93.6451V0.0253906H493.993V93.6451H475.1Z" fill="#154B64"/>
<path d="M584.739 18.4487H555.46V93.6451H536.027V18.4487H506.747V0.0253906H584.736V18.4487H584.739Z" fill="#154B64"/>
<path d="M685.019 0.0253906L649.585 70.7121L649.62 93.6451H630.881L630.889 70.7121L595.381 0.0253906H615.884L640.203 53.8801L640.213 53.9042L640.224 53.8801L664.519 0.0253906H685.019Z" fill="#154B64"/>
<path d="M239.701 0.0787917H231.402V0.0253906H212.445V93.6451H231.402V73.0617H239.701C264.708 73.0617 280.357 59.1001 280.357 36.6423C280.357 14.1846 264.708 0.0787917 239.701 0.0787917V0.0787917ZM239.695 55.9414H231.402V17.151H239.695C252.936 17.151 263.771 25.5937 263.771 36.6797C263.771 47.7657 252.933 55.9414 239.695 55.9414Z" fill="#154B64"/>
<path d="M443.137 67.1756L440.979 63.4936C448.228 57.1843 452.273 47.9486 452.292 36.4834C452.324 14.0417 436.707 0.0640816 411.715 0.026701L392.868 0V0.0587412L384.473 0.0453912L384.334 93.6063L403.281 93.6357L403.31 72.9535L411.606 72.9669C415.913 72.9722 419.942 72.5637 423.664 71.768L424.796 73.7012L425.741 75.3165L428.005 79.1827L436.467 93.6303L458.647 93.6624L443.137 67.1782V67.1756ZM411.625 55.9027L403.334 55.8893L403.342 50.1941L403.39 17.7157V17.1256L411.681 17.139C424.914 17.1577 435.73 25.4909 435.714 36.4247C435.698 47.5054 424.855 55.924 411.622 55.9053L411.625 55.9027Z" fill="#154B64"/>
<path d="M93.3553 41.8842H75.4473C75.45 41.9029 75.4553 41.9216 75.458 41.9429H44.7499V55.9259H74.4327C70.6226 67.5219 59.6941 75.8951 46.8085 75.8951C30.7562 75.8951 17.7424 62.9001 17.7424 46.8691C17.7424 30.8382 30.7562 17.8431 46.8085 17.8431C56.0628 17.8431 64.3052 22.1633 69.6293 28.8891C69.6346 28.8944 69.64 28.9024 69.6453 28.9078H90.0391C82.9902 12.0064 66.2918 0.12207 46.8112 0.12207C20.9598 0.12207 0 21.0498 0 46.8665C0 72.6831 20.9571 93.6109 46.8112 93.6109C69.5599 93.6109 88.5198 77.4037 92.7438 55.9206C93.1737 53.7445 93.4487 51.515 93.5636 49.2401V44.4875C93.5208 43.6304 93.4568 42.7813 93.366 41.9349C93.366 41.9162 93.3606 41.8975 93.3606 41.8762L93.3553 41.8842Z" fill="#154B64"/>
<path d="M198.776 46.8085C198.776 72.6598 177.819 93.617 151.968 93.617C126.116 93.617 105.159 72.6598 105.159 46.8085C105.159 20.9571 126.116 0 151.968 0C177.819 0 198.776 20.9571 198.776 46.8085ZM122.902 46.8085C122.902 62.8608 135.915 75.8745 151.968 75.8745C168.02 75.8745 181.034 62.8608 181.034 46.8085C181.034 30.7562 168.02 17.7424 151.968 17.7424C135.915 17.7424 122.902 30.7562 122.902 46.8085V46.8085Z" fill="#154B64"/>
</svg>
